<svg width="28" height="17" viewBox="0 0 28 17" fill="none" xmlns="http://www.w3.org/2000/svg">
<path d="M26.8715 5.63939C26.4788 5.63939 26.0861 5.9303 26.0861 6.41515V11.0697C26.0861 11.4576 26.3806 11.8455 26.8715 11.8455C27.2643 11.8455 27.657 11.5545 27.657 11.0697V6.41515C27.657 6.02727 27.2643 5.63939 26.8715 5.63939ZM19.3115 0.5H5.46789C2.81698 0.5 0.656982 2.63333 0.656982 5.25152V11.8455C0.656982 14.4636 2.81698 16.5 5.46789 16.5H19.3115C21.9624 16.5 24.1224 14.3667 24.1224 11.8455V5.25152C24.1224 2.63333 21.9624 0.5 19.3115 0.5ZM22.6497 11.8455C22.6497 13.5909 21.177 15.0455 19.3115 15.0455H5.46789C3.60244 15.0455 2.12971 13.5909 2.12971 11.8455V5.25152C2.12971 3.50606 3.60244 2.05152 5.46789 2.05152H19.3115C21.177 2.05152 22.6497 3.50606 22.6497 5.25152V11.8455Z" fill="#7E929B"/>
<path d="M21.2752 4.96061V11.9424C21.2752 12.9121 20.4897 13.6879 19.5079 13.6879H5.27153C4.28971 13.6879 3.50426 12.9121 3.50426 11.9424V4.96061C3.50426 3.99091 4.28971 3.21515 5.27153 3.21515H19.5079C20.4897 3.31212 21.2752 4.08788 21.2752 4.96061Z" fill="#7E929B"/>
</svg>
