<svg width="54" height="56" viewBox="0 0 54 56" fill="none" xmlns="http://www.w3.org/2000/svg">
<g filter="url(#filter0_d_149_57)">
<rect y="0.064209" width="53.0574" height="52.1459" rx="11.7031" fill="url(#paint0_linear_149_57)"/>
</g>
<path d="M40.2987 16.0064C40.5302 14.6019 39.108 13.4934 37.7781 14.0417L11.2889 24.9617C10.3352 25.3549 10.4049 26.7113 11.3941 27.007L16.8569 28.6404C17.8994 28.9522 19.0284 28.791 19.9388 28.2004L32.2549 20.2111C32.6263 19.9701 33.0311 20.466 32.7138 20.7731L23.8484 29.3553C22.9884 30.1878 23.1591 31.5985 24.1936 32.2075L34.1193 38.0519C35.2325 38.7073 36.6647 38.0488 36.873 36.7857L40.2987 16.0064Z" fill="white"/>
<defs>
<filter id="filter0_d_149_57" x="0" y="0.064209" width="53.0574" height="55.3377" filterUnits="userSpaceOnUse" color-interpolation-filters="sRGB">
<feFlood flood-opacity="0" result="BackgroundImageFix"/>
<feColorMatrix in="SourceAlpha" type="matrix" values="0 0 0 0 0 0 0 0 0 0 0 0 0 0 0 0 0 0 127 0" result="hardAlpha"/>
<feOffset dy="3.19174"/>
<feComposite in2="hardAlpha" operator="out"/>
<feColorMatrix type="matrix" values="0 0 0 0 0.00864583 0 0 0 0 0.54167 0 0 0 0 0.691667 0 0 0 1 0"/>
<feBlend mode="normal" in2="BackgroundImageFix" result="effect1_dropShadow_149_57"/>
<feBlend mode="normal" in="SourceGraphic" in2="effect1_dropShadow_149_57" result="shape"/>
</filter>
<linearGradient id="paint0_linear_149_57" x1="173.498" y1="-31.8618" x2="-40.3609" y2="-117.545" gradientUnits="userSpaceOnUse">
<stop stop-color="#00C7FF"/>
<stop offset="0.286458" stop-color="#80E3FF"/>
<stop offset="0.5" stop-color="#00C7FF"/>
<stop offset="0.75" stop-color="#80E3FF"/>
<stop offset="1" stop-color="#00C7FF"/>
</linearGradient>
</defs>
</svg>
