<svg width="24" height="23" viewBox="0 0 24 23" fill="none" xmlns="http://www.w3.org/2000/svg">
<path d="M4.89038 20.8C3.42302 19.7338 2.22907 18.3352 1.40633 16.7187C0.583592 15.1022 0.155456 13.3138 0.156987 11.5C0.156987 5.14855 5.30554 0 11.657 0C18.0084 0 23.157 5.14855 23.157 11.5C23.1585 13.3138 22.7304 15.1022 21.9076 16.7187C21.0849 18.3352 19.8909 19.7338 18.4236 20.8L17.2563 18.8002C18.7817 17.6302 19.9022 16.0117 20.4605 14.1721C21.0188 12.3326 20.9868 10.3643 20.369 8.54389C19.7512 6.72345 18.5787 5.14226 17.0161 4.02243C15.4535 2.9026 13.5794 2.30039 11.657 2.30039C9.73457 2.30039 7.86045 2.9026 6.29787 4.02243C4.73529 5.14226 3.56276 6.72345 2.94497 8.54389C2.32719 10.3643 2.29519 12.3326 2.85348 14.1721C3.41176 16.0117 4.53228 17.6302 6.05763 18.8002L4.89038 20.8ZM7.22948 16.7923C6.14276 15.8831 5.36227 14.6615 4.99406 13.2933C4.62584 11.9251 4.68776 10.4767 5.17138 9.14492C5.65501 7.81313 6.5369 6.66252 7.69724 5.84941C8.85758 5.0363 10.2401 4.60011 11.657 4.60011C13.0739 4.60011 14.4564 5.0363 15.6167 5.84941C16.7771 6.66252 17.659 7.81313 18.1426 9.14492C18.6262 10.4767 18.6881 11.9251 18.3199 13.2933C17.9517 14.6615 17.1712 15.8831 16.0845 16.7923L14.9 14.7614C15.546 14.1192 15.9869 13.2996 16.1666 12.4065C16.3463 11.5135 16.2568 10.5872 15.9094 9.74503C15.5621 8.90289 14.9725 8.18285 14.2154 7.67619C13.4584 7.16952 12.5679 6.89905 11.657 6.89905C10.746 6.89905 9.85557 7.16952 9.09852 7.67619C8.34146 8.18285 7.75188 8.90289 7.40452 9.74503C7.05717 10.5872 6.96767 11.5135 7.14738 12.4065C7.3271 13.2996 7.76793 14.1192 8.41398 14.7614L7.22948 16.7923ZM10.507 12.65H12.807L13.957 23H9.35698L10.507 12.65Z" fill="#7E929B"/>
</svg>
