<svg width="16" height="23" viewBox="0 0 16 23" fill="none" xmlns="http://www.w3.org/2000/svg">
<path d="M3.37127 4.34099C3.37127 3.25599 3.8228 2.21543 4.62652 1.44822C5.43025 0.681014 6.52034 0.25 7.65698 0.25C8.79362 0.25 9.88371 0.681014 10.6874 1.44822C11.4912 2.21543 11.9427 3.25599 11.9427 4.34099V9.71553C13.253 10.5865 14.238 11.8339 14.7542 13.2762C15.2704 14.7185 15.291 16.2804 14.8128 17.7346C14.3347 19.1889 13.3828 20.4595 12.0958 21.3615C10.8087 22.2636 9.25369 22.75 7.65698 22.75C6.06028 22.75 4.50524 22.2636 3.2182 21.3615C1.93116 20.4595 0.979302 19.1889 0.501157 17.7346C0.0230134 16.2804 0.0435425 14.7185 0.559757 13.2762C1.07597 11.8339 2.06093 10.5865 3.37127 9.71553V4.34099ZM4.59698 11.3928C3.66074 12.0148 2.95689 12.9057 2.5879 13.936C2.21891 14.9662 2.20404 16.082 2.54546 17.1209C2.88687 18.1598 3.56675 19.0675 4.48612 19.712C5.40549 20.3565 6.51635 20.704 7.65698 20.704C8.79762 20.704 9.90847 20.3565 10.8278 19.712C11.7472 19.0675 12.4271 18.1598 12.7685 17.1209C13.1099 16.082 13.0951 14.9662 12.7261 13.936C12.3571 12.9057 11.6532 12.0148 10.717 11.3928L9.79984 10.7823V4.34099C9.79984 3.79849 9.57407 3.27821 9.17221 2.89461C8.77035 2.511 8.2253 2.2955 7.65698 2.2955C7.08866 2.2955 6.54362 2.511 6.14175 2.89461C5.73989 3.27821 5.51412 3.79849 5.51412 4.34099V10.7823L4.59698 11.3928ZM3.37127 15.5912H11.9427C11.9427 16.6762 11.4912 17.7168 10.6874 18.484C9.88371 19.2512 8.79362 19.6822 7.65698 19.6822C6.52034 19.6822 5.43025 19.2512 4.62652 18.484C3.8228 17.7168 3.37127 16.6762 3.37127 15.5912Z" fill="#7E929B"/>
</svg>
