<svg width="25" height="24" viewBox="0 0 25 24" fill="none" xmlns="http://www.w3.org/2000/svg">
<path d="M12.5648 10.8004C13.6772 10.8004 14.5805 11.7347 14.5805 12.8855C14.5805 14.0363 13.6772 14.9706 12.5648 14.9706C11.4524 14.9706 10.5492 14.0363 10.5492 12.8855C10.5492 11.7347 11.4524 10.8004 12.5648 10.8004ZM12.5648 9.67865C10.8528 9.67865 9.46483 11.1145 9.46483 12.8855C9.46483 14.6565 10.8528 16.0924 12.5648 16.0924C14.2768 16.0924 15.6648 14.6565 15.6648 12.8855C15.6648 11.1145 14.2768 9.67865 12.5648 9.67865Z" fill="#7E929B"/>
<path d="M13.3864 1.12174C13.9605 1.12174 14.5549 1.19828 15.3127 1.36984C15.5781 1.44111 16.2032 1.61267 16.4379 1.70505C16.8053 1.84494 17.1982 2.04553 17.2008 2.04817C17.2033 2.04817 17.4406 2.17222 17.7468 2.36754C17.956 2.50214 18.1346 2.66051 18.1933 2.71594L18.5607 3.12768L18.5913 3.15935C18.6372 3.20686 18.701 3.29132 18.701 3.45761C18.701 3.66876 18.5888 3.98548 18.2775 4.24942L18.2239 4.29429L18.1754 4.34708C18.0453 4.48961 17.9024 4.61894 17.7493 4.72715L17.6524 4.79842C17.2033 5.11778 16.369 5.71429 15.5296 6.64863C15.2209 6.99175 14.9581 7.31904 14.7463 7.59881C14.06 7.29528 13.32 7.13956 12.5623 7.13956C11.9652 7.13956 11.3733 7.23985 10.812 7.43253C10.6563 7.13428 10.4803 6.78852 10.2915 6.42164C9.83989 5.54009 9.63323 4.34444 9.58475 4.03827L9.5873 3.70835C9.66129 2.27252 10.3094 1.57044 11.8198 1.2933C12.4526 1.17189 12.9195 1.12174 13.3864 1.12174ZM13.3864 0C12.8047 0 12.2535 0.0686242 11.631 0.182118C9.57199 0.562191 8.59734 1.71824 8.50549 3.66876L8.50039 4.10953C8.50039 4.10953 8.71216 5.73012 9.33471 6.9416C9.77611 7.80205 10.1512 8.52524 10.3323 8.87364C10.9906 8.48301 11.7509 8.25866 12.5648 8.25866C13.4859 8.25866 14.3406 8.54635 15.0525 9.03992C15.0831 9.01881 15.1086 8.98977 15.1316 8.95546C15.3357 8.64137 15.7388 8.06599 16.3256 7.41142C17.1472 6.49555 17.9739 5.93599 18.3719 5.6483C18.5888 5.49258 18.7852 5.31574 18.9664 5.11778C19.4971 4.67173 19.7879 4.04619 19.7879 3.45761C19.7879 3.05642 19.6527 2.66843 19.3618 2.36754L18.9638 1.91884C18.9638 1.91884 18.6832 1.64434 18.3209 1.41208C17.9585 1.17981 17.683 1.03992 17.683 1.03992C17.683 1.03992 17.2441 0.815572 16.8155 0.65193C16.4558 0.514682 15.5806 0.282415 15.5628 0.277136C14.7055 0.0818212 14.0268 0 13.3864 0Z" fill="#7E929B"/>
<path d="M18.9485 13.7512H19.2011C20.1655 13.7512 21.2831 14.126 21.5663 14.2237L21.8444 14.3821C23.0359 15.1237 23.3293 16.0449 22.8573 17.5546C22.5001 18.6975 22.1378 19.4998 21.1478 20.706C20.9845 20.8908 20.5253 21.4002 20.3339 21.577C20.0405 21.8463 19.6859 22.1102 19.6833 22.1128C19.6808 22.1155 19.4664 22.2738 19.1526 22.4612C18.9408 22.5879 18.7214 22.6777 18.6449 22.7067L18.1218 22.8492L18.081 22.8598C18.0453 22.8703 18.0096 22.8756 17.9739 22.8756C17.9101 22.8756 17.8437 22.8571 17.7748 22.8202C17.5962 22.7225 17.3768 22.4718 17.2977 22.0627L17.285 21.9914L17.262 21.9228C17.2008 21.7354 17.1599 21.5454 17.137 21.3553L17.1242 21.2339C17.1233 21.2258 17.1224 21.2175 17.1214 21.2092C17.057 20.644 16.9398 19.6143 16.5425 18.4256C16.3945 17.9822 16.2389 17.5889 16.0986 17.2643C16.6777 16.7813 17.16 16.1795 17.5172 15.4853C17.7978 14.939 17.9892 14.353 18.0887 13.7486C18.3515 13.7539 18.6423 13.7512 18.9485 13.7512ZM18.9485 12.6295C18.1193 12.6295 17.4304 12.6321 17.0834 12.6348C17.1089 13.4187 16.9431 14.221 16.5604 14.9627C16.1292 15.8047 15.4811 16.4513 14.7259 16.8684C14.731 16.908 14.7437 16.9449 14.7616 16.9792C14.9326 17.3118 15.2362 17.9505 15.5194 18.7951C15.9149 19.9749 16.0067 20.9937 16.0628 21.4899C16.0935 21.7592 16.1521 22.0257 16.2363 22.2818C16.369 22.9759 16.7645 23.5355 17.2671 23.8126C17.4865 23.934 17.7264 24 17.9764 24C18.1142 24 18.2571 23.9789 18.3974 23.934L18.9664 23.7809C18.9664 23.7809 19.3312 23.6542 19.6986 23.4325C20.066 23.2108 20.3161 23.0261 20.3161 23.0261C20.3161 23.0261 20.7141 22.7305 21.056 22.4164C21.3417 22.1524 21.9515 21.4609 21.9643 21.4477C23.0487 20.1307 23.4824 19.2121 23.8906 17.9004C24.5336 15.8416 24.0054 14.4084 22.3827 13.4081L22.0102 13.197C22.0102 13.197 20.5278 12.6295 19.2036 12.6295C19.1169 12.6295 19.0327 12.6295 18.9485 12.6295Z" fill="#7E929B"/>
<path fill-rule="evenodd" clip-rule="evenodd" d="M2.07844 11.4814C1.6549 11.4814 1.25688 11.6028 0.948152 11.8271C0.629223 12.0567 0.399595 12.3919 0.325603 12.809L0.198031 13.4028C0.198031 13.4028 0.139348 13.7961 0.162311 14.2369C0.185274 14.675 0.228649 14.9918 0.228649 14.9918C0.228649 14.9918 0.300089 15.4932 0.414903 15.9499C0.509306 16.3352 0.825684 17.2088 0.830787 17.2273C1.46864 18.8294 2.05803 19.6476 2.99695 20.6216C3.85678 21.5137 4.71407 21.9466 5.59941 21.9466C6.23217 21.9466 6.88023 21.7248 7.54871 21.292L7.90336 21.0439C7.90336 21.0439 9.06936 19.9406 9.6766 18.7212C10.1078 17.8555 10.4701 17.1244 10.641 16.7707C9.95471 16.4355 9.34236 15.9155 8.88055 15.224C8.35496 14.4428 8.09726 13.5506 8.08196 12.6638C8.04879 12.6506 8.01052 12.6453 7.97224 12.6453H7.96969H7.83192C7.4441 12.6453 6.819 12.6216 6.06377 12.5107C4.86715 12.3339 3.95119 11.9512 3.49703 11.777C3.2521 11.682 2.99695 11.6133 2.73671 11.5737C2.51473 11.513 2.29276 11.4814 2.07844 11.4814ZM2.43564 12.6559C2.31572 12.6216 2.1958 12.6031 2.07844 12.6031C1.87687 12.6031 1.69572 12.6559 1.5656 12.7483C1.43548 12.8406 1.40486 12.9409 1.3921 13.0096L1.38955 13.0307L1.38445 13.0518L1.26708 13.5982C1.25943 13.68 1.23391 13.9228 1.24667 14.1762C1.26453 14.5483 1.3028 14.8202 1.3028 14.8228C1.3028 14.8281 1.36914 15.2768 1.46609 15.6674C1.52733 15.9208 1.7442 16.549 1.84115 16.8156C2.42288 18.2778 2.94592 18.9799 3.76493 19.8298C4.40789 20.4975 5.00748 20.8222 5.59686 20.8222C6.01275 20.8222 6.45669 20.6691 6.95422 20.3497L7.21702 20.165C7.43389 19.9512 8.26566 19.0934 8.70706 18.2065C8.89331 17.837 9.06426 17.4913 9.21479 17.1877C8.74278 16.8182 8.32434 16.3722 7.985 15.8654C7.55381 15.2214 7.25784 14.5035 7.10731 13.7486C6.76287 13.7275 6.35719 13.6905 5.90814 13.6245C4.70439 13.4474 3.76412 13.0825 3.24923 12.8828L3.22913 12.875L3.11687 12.8327C2.94337 12.7667 2.75967 12.7166 2.57086 12.6876L2.50197 12.677L2.43564 12.6559Z" fill="#7E929B"/>
<path d="M2.07844 12.6031C2.1958 12.6031 2.31572 12.6216 2.43564 12.6559L2.50197 12.677L2.57086 12.6876C2.75967 12.7166 2.94337 12.7667 3.11687 12.8327L3.22913 12.875L3.24923 12.8828C3.76412 13.0825 4.70439 13.4474 5.90814 13.6245C6.35719 13.6905 6.76287 13.7275 7.10731 13.7486C7.25784 14.5035 7.55381 15.2214 7.985 15.8654C8.32434 16.3722 8.74278 16.8182 9.21479 17.1877C9.06426 17.4913 8.89331 17.837 8.70706 18.2065C8.26566 19.0934 7.43389 19.9512 7.21702 20.165L6.95422 20.3497C6.45669 20.6691 6.01275 20.8222 5.59686 20.8222C5.00748 20.8222 4.40789 20.4975 3.76493 19.8298C2.94592 18.9799 2.42288 18.2778 1.84115 16.8156C1.7442 16.549 1.52733 15.9208 1.46609 15.6674C1.36914 15.2768 1.3028 14.8281 1.3028 14.8228C1.3028 14.8202 1.26453 14.5483 1.24667 14.1762C1.23391 13.9228 1.25943 13.68 1.26708 13.5982L1.38445 13.0518L1.38955 13.0307L1.3921 13.0096C1.40486 12.9409 1.43548 12.8406 1.5656 12.7483C1.69572 12.6559 1.87687 12.6031 2.07844 12.6031Z" fill="#7E929B"/>
<path d="M18.9485 13.7512H19.2011C20.1655 13.7512 21.2831 14.126 21.5663 14.2237L21.8444 14.3821C23.0359 15.1237 23.3293 16.0449 22.8573 17.5546C22.5001 18.6975 22.1378 19.4998 21.1478 20.706C20.9845 20.8908 20.5253 21.4002 20.3339 21.577C20.0405 21.8463 19.6859 22.1102 19.6833 22.1128C19.6808 22.1155 19.4664 22.2738 19.1526 22.4612C18.9408 22.5879 18.7214 22.6777 18.6449 22.7067L18.1218 22.8492L18.081 22.8598C18.0453 22.8703 18.0096 22.8756 17.9739 22.8756C17.9101 22.8756 17.8437 22.8571 17.7748 22.8202C17.5962 22.7225 17.3768 22.4718 17.2977 22.0627L17.285 21.9914L17.262 21.9228C17.2008 21.7354 17.1599 21.5454 17.137 21.3553L17.1242 21.2339L17.1214 21.2092C17.057 20.644 16.9398 19.6143 16.5425 18.4256C16.3945 17.9822 16.2389 17.5889 16.0986 17.2643C16.6777 16.7813 17.16 16.1795 17.5172 15.4853C17.7978 14.939 17.9892 14.353 18.0887 13.7486C18.3515 13.7539 18.6423 13.7512 18.9485 13.7512Z" fill="#7E929B"/>
<path d="M13.3864 1.12174C13.9605 1.12174 14.5549 1.19828 15.3127 1.36984C15.5781 1.44111 16.2032 1.61267 16.4379 1.70505C16.8053 1.84494 17.1982 2.04553 17.2008 2.04817C17.2033 2.04817 17.4406 2.17222 17.7468 2.36754C17.956 2.50214 18.1346 2.66051 18.1933 2.71594L18.5607 3.12768L18.5913 3.15935C18.6372 3.20686 18.701 3.29132 18.701 3.45761C18.701 3.66876 18.5888 3.98548 18.2775 4.24942L18.2239 4.29429L18.1754 4.34708C18.0453 4.48961 17.9024 4.61894 17.7493 4.72715L17.6524 4.79842C17.2033 5.11778 16.369 5.71429 15.5296 6.64863C15.2209 6.99175 14.9581 7.31904 14.7463 7.59881C14.06 7.29528 13.32 7.13956 12.5623 7.13956C11.9652 7.13956 11.3733 7.23985 10.812 7.43253C10.6563 7.13428 10.4803 6.78852 10.2915 6.42164C9.83989 5.54009 9.63323 4.34444 9.58475 4.03827L9.5873 3.70835C9.66129 2.27252 10.3094 1.57044 11.8198 1.2933C12.4526 1.17189 12.9195 1.12174 13.3864 1.12174Z" fill="#7E929B"/>
<path d="M12.5648 10.8004C13.6772 10.8004 14.5805 11.7347 14.5805 12.8855C14.5805 14.0363 13.6772 14.9706 12.5648 14.9706C11.4524 14.9706 10.5492 14.0363 10.5492 12.8855C10.5492 11.7347 11.4524 10.8004 12.5648 10.8004Z" fill="#7E929B"/>
</svg>
